<svg xmlns="http://www.w3.org/2000/svg" width="705" height="140" viewBox="0 0 705 140">
  <defs>
    <linearGradient id="playbooks-logo-dark-a" x1="15.902%" x2="82.752%" y1="13.444%" y2="87.167%">
      <stop offset="0%" stop-color="#F43F5E"/>
      <stop offset="100%" stop-color="#FB923C"/>
    </linearGradient>
  </defs>
  <g fill="none" fill-rule="evenodd">
    <g fill="#F4F5F7" fill-rule="nonzero" transform="translate(186.6 31.8)">
      <path d="M24.7,4.3 C35.4333333,4.3 43.25,6.38333333 48.15,10.55 C53.05,14.7166667 55.5,21.1166667 55.5,29.75 C55.5,38.3833333 52.9833333,44.7 47.95,48.7 C42.9166667,52.7 35.2333333,54.7 24.9,54.7 L15.6,54.7 L15.6,74.2 L0,74.2 L0,4.3 L24.7,4.3 Z M26.1,41.2 C31.3,41.2 34.8333333,40.15 36.7,38.05 C38.5666667,35.95 39.5,32.8833333 39.5,28.85 C39.5,24.8166667 38.2833333,21.95 35.85,20.25 C33.4166667,18.55 29.6333333,17.7 24.5,17.7 L15.6,17.7 L15.6,41.2 L26.1,41.2 Z"/>
      <polygon points="82.45 74.2 67.45 74.2 67.45 0 82.45 0"/>
      <path d="M143.6 74.2L129.5 74.2 129.5 67.7C125.633333 72.5666667 120.85 75 115.15 75 109.45 75 104.666667 73.35 100.8 70.05 96.9333333 66.75 95 62.35 95 56.85 95 51.35 97 47.2333333 101 44.5 105 41.7666667 110.466667 40.4 117.4 40.4L128.6 40.4 128.6 40.1C128.6 34.3666667 125.566667 31.5 119.5 31.5 116.9 31.5 114.15 32.0166667 111.25 33.05 108.35 34.0833333 105.9 35.3666667 103.9 36.9L97.2 27.2C104.266667 22.0666667 112.333333 19.5 121.4 19.5 127.933333 19.5 133.266667 21.1333333 137.4 24.4 141.533333 27.6666667 143.6 32.8333333 143.6 39.9L143.6 74.2zM128.5 53.7L128.5 51.1 119.1 51.1C113.1 51.1 110.1 52.9666667 110.1 56.7 110.1 58.6333333 110.816667 60.1166667 112.25 61.15 113.683333 62.1833333 115.733333 62.7 118.4 62.7 121.066667 62.7 123.416667 61.8833333 125.45 60.25 127.483333 58.6166667 128.5 56.4333333 128.5 53.7zM167.15 95.4C161.883333 95.4 156.916667 93.2666667 152.25 89L159.05 77.9C161.583333 80.3666667 164.183333 81.6 166.85 81.6 168.25 81.6 169.45 80.9166667 170.45 79.55 171.45 78.1833333 171.95 76.7333333 171.95 75.2 171.95 73.6666667 165.016667 55.4 151.15 20.4L167.15 20.4 180.25 53.9 193.35 20.4 209.35 20.4 184.35 83.8C182.883333 87.4666667 180.6 90.3166667 177.5 92.35 174.4 94.3833333 170.95 95.4 167.15 95.4zM249.1 19.5C255.633333 19.5 261.333333 22.05 266.2 27.15 271.066667 32.25 273.5 38.8 273.5 46.8 273.5 54.8 271 61.5 266 66.9 261 72.3 255.316667 75 248.95 75 242.583333 75 237.3 72.3666667 233.1 67.1L233.1 74.2 218.1 74.2 218.1 0 233.1 0 233.1 26.4C237.233333 21.8 242.566667 19.5 249.1 19.5zM232.9 47.4C232.9 51.7333333 234.116667 55.2833333 236.55 58.05 238.983333 60.8166667 241.933333 62.2 245.4 62.2 248.866667 62.2 251.9 60.8166667 254.5 58.05 257.1 55.2833333 258.4 51.7333333 258.4 47.4 258.4 43.0666667 257.133333 39.4333333 254.6 36.5 252.066667 33.5666667 249.033333 32.1 245.5 32.1 241.966667 32.1 238.983333 33.55 236.55 36.45 234.116667 39.35 232.9 43 232.9 47.4zM297.95 47.3C297.95 51.7 299.2 55.2833333 301.7 58.05 304.2 60.8166667 307.4 62.2 311.3 62.2 315.2 62.2 318.4 60.8166667 320.9 58.05 323.4 55.2833333 324.65 51.7 324.65 47.3 324.65 42.9 323.4 39.3 320.9 36.5 318.4 33.7 315.2 32.3 311.3 32.3 307.4 32.3 304.2 33.7 301.7 36.5 299.2 39.3 297.95 42.9 297.95 47.3zM339.75 47.3C339.75 55.1 337.05 61.6666667 331.65 67 326.25 72.3333333 319.466667 75 311.3 75 303.133333 75 296.35 72.3333333 290.95 67 285.55 61.6666667 282.85 55.1 282.85 47.3 282.85 39.5 285.55 32.9166667 290.95 27.55 296.35 22.1833333 303.133333 19.5 311.3 19.5 319.466667 19.5 326.25 22.1833333 331.65 27.55 337.05 32.9166667 339.75 39.5 339.75 47.3zM364.1 47.3C364.1 51.7 365.35 55.2833333 367.85 58.05 370.35 60.8166667 373.55 62.2 377.45 62.2 381.35 62.2 384.55 60.8166667 387.05 58.05 389.55 55.2833333 390.8 51.7 390.8 47.3 390.8 42.9 389.55 39.3 387.05 36.5 384.55 33.7 381.35 32.3 377.45 32.3 373.55 32.3 370.35 33.7 367.85 36.5 365.35 39.3 364.1 42.9 364.1 47.3zM405.9 47.3C405.9 55.1 403.2 61.6666667 397.8 67 392.4 72.3333333 385.616667 75 377.45 75 369.283333 75 362.5 72.3333333 357.1 67 351.7 61.6666667 349 55.1 349 47.3 349 39.5 351.7 32.9166667 357.1 27.55 362.5 22.1833333 369.283333 19.5 377.45 19.5 385.616667 19.5 392.4 22.1833333 397.8 27.55 403.2 32.9166667 405.9 39.5 405.9 47.3z"/>
      <polygon points="433.25 74.2 418.25 74.2 418.25 0 433.25 0 433.25 38.1 449.95 20.3 468.85 20.3 448.35 42.1 469.65 74.2 451.85 74.2 438.15 53.6 433.25 58.7"/>
      <path d="M518.4,57.5 C518.4,62.7666667 516.45,67 512.55,70.2 C508.65,73.4 503.7,75 497.7,75 C493.7,75 489.533333,74.2833333 485.2,72.85 C480.866667,71.4166667 476.966667,69.3 473.5,66.5 L480.1,57.1 C485.7,61.4333333 491.666667,63.6 498,63.6 C499.933333,63.6 501.466667,63.2166667 502.6,62.45 C503.733333,61.6833333 504.3,60.6666667 504.3,59.4 C504.3,58.1333333 503.516667,56.9666667 501.95,55.9 C500.383333,54.8333333 498.116667,53.8333333 495.15,52.9 C492.183333,51.9666667 489.916667,51.1666667 488.35,50.5 C486.783333,49.8333333 485,48.8666667 483,47.6 C478.933333,45.0666667 476.9,41.3166667 476.9,36.35 C476.9,31.3833333 478.9,27.3333333 482.9,24.2 C486.9,21.0666667 492.066667,19.5 498.4,19.5 C504.733333,19.5 511.066667,21.6333333 517.4,25.9 L511.8,35.9 C507.133333,32.7 502.483333,31.1 497.85,31.1 C493.216667,31.1 490.9,32.3666667 490.9,34.9 C490.9,36.3 491.633333,37.4 493.1,38.2 C494.566667,39 497,39.9333333 500.4,41 C503.8,42.0666667 506.216667,42.8833333 507.65,43.45 C509.083333,44.0166667 510.8,44.9 512.8,46.1 C516.533333,48.3666667 518.4,52.1666667 518.4,57.5 Z"/>
    </g>
    <circle cx="70" cy="70" r="70" fill="url(#playbooks-logo-dark-a)"/>
    <path fill="#FFF" d="M96.0278687,33.04 C97.2679889,33.04 98.4381023,33.6185911 99.198176,34.6061862 C99.9482488,35.5937814 100.198273,36.8706721 99.868241,38.0677571 L84.9967991,92.0562915 C84.4167429,94.1511903 82.5165587,95.597668 80.3363473,95.597668 L39.5723951,95.597668 C38.8123214,95.597668 38.0922516,95.9867206 37.6822118,96.6351417 C37.2721721,97.273587 37.2121662,98.0816194 37.5421982,98.779919 C37.6722108,99.0492632 37.7622196,99.2188502 37.7622196,99.2188502 C38.8023204,100.535644 40.3624717,101.283822 42.0426346,101.283822 L84.6267633,101.283822 C86.8069747,101.283822 88.7171599,99.8273684 89.2872151,97.7424453 L103.97864,44.4123077 L104.838723,44.4123077 C106.018837,44.4123077 107.138946,44.9609717 107.859016,45.8986883 C108.569085,46.8364049 108.819109,48.0534413 108.509079,49.1906721 L93.8276553,103.548308 C93.287603,105.563401 91.4474246,106.96 89.3572219,106.96 L42.8027083,106.96 C39.4023786,106.96 36.1820664,105.413765 34.0618608,102.750251 C31.9316543,100.096713 31.1615796,96.6151903 31.9316543,93.3032551 L47.2431388,37.5091174 C47.9632086,34.8655547 50.3634413,33.04 53.113708,33.04 Z M72.495573,50.1797674 C71.3697679,51.068928 71.040993,52.5375416 71.7583201,53.526608 L76.5305382,60.1403647 L67.8628353,66.9439422 C66.7370302,67.8331028 66.4082552,69.3017164 67.1255824,70.2907828 C67.5041717,70.8102924 68.1119072,71.12 68.8093086,71.12 C69.4070812,71.12 70.0148167,70.9002075 70.5229234,70.5005847 L81.2031275,62.1184973 C82.3289326,61.2293367 82.6577075,59.760723 81.9403804,58.7716567 L81.9403804,58.7616661 L75.8929141,50.3795787 C75.574102,49.9399937 75.0958839,49.6602578 74.5379628,49.5803332 C73.8505243,49.4904181 73.1132714,49.70022 72.495573,50.1797674 Z M61.3570766,50.1797674 L50.6768725,58.5618548 C49.5510674,59.4510154 49.2222925,60.919629 49.9396196,61.9086954 L55.9870859,70.2907828 C56.3656752,70.8102924 56.9734107,71.12 57.6708121,71.12 C58.2685847,71.12 58.8763202,70.9002075 59.384427,70.5005847 C60.5102321,69.6114241 60.839007,68.1428104 60.1216799,67.1537441 L55.3494618,60.5399874 L64.0171647,53.7364099 C65.1429698,52.8472493 65.4717448,51.3786356 64.7544176,50.3895693 C64.4356056,49.9499843 63.9573875,49.6702483 63.3994664,49.5903238 L63.3895035,49.5803332 C62.702065,49.4904181 61.9648121,49.70022 61.3570766,50.1797674 Z"/>
  </g>
</svg>
